Coordinates
version=1
nRows=25
nColumns=23
inDegrees=yes

Units are S.I. units (second, meters, Newtons, ...)
Angles are in degrees.

endheader
time	pelvis_tilt	pelvis_list	pelvis_rotation	pelvis_tx	pelvis_ty	pelvis_tz	hip_flexion_r	hip_adduction_r	hip_rotation_r	knee_angle_r	knee_angle_r_beta	ankle_angle_r	subtalar_angle_r	mtp_angle_r	hip_flexion_l	hip_adduction_l	hip_rotation_l	knee_angle_l	knee_angle_l_beta	ankle_angle_l	subtalar_angle_l	mtp_angle_l
    122.00000000	     -2.48130333	    -10.15362707	     -6.30942992	     -0.02901148	      1.28650353	      0.21094586	     76.90705997	      3.85651560	     -2.18150417	    102.41151963	      1.78741821	      1.63938440	      0.00000000	      0.00000000	     33.36945294	    -16.82342945	      2.14480249	     55.95662559	      0.97662735	     -2.86614308	      0.00000000	      0.00000000
    122.00888900	     -2.22731247	     -9.63587972	     -6.12310495	     -0.02916076	      1.28674796	      0.21084546	     75.79537659	      3.79916088	     -1.66559662	    100.30420676	      1.75063866	      2.75574747	      0.00000000	      0.00000000	     33.95881261	    -16.08194090	      2.74139328	     58.93632544	      1.02863293	     -2.21799365	      0.00000000	      0.00000000
    122.01777800	     -1.97198713	     -9.15931751	     -5.89794534	     -0.02923643	      1.28695691	      0.21072275	     74.47129434	      3.70614417	     -1.21145976	     98.00791635	      1.71056083	      3.86927457	      0.00000000	      0.00000000	     34.66310512	    -15.36193376	      3.37006581	     62.02313367	      1.08250789	     -1.66151088	      0.00000000	      0.00000000
    122.02666700	     -1.76849293	     -8.29393620	     -5.90662894	     -0.02915283	      1.28700961	      0.21113233	     73.13387878	      3.67833110	     -0.32747904	     95.60664903	      1.66865081	      4.60803667	      0.00000000	      0.00000000	     35.38176324	    -14.46844344	      3.46197987	     65.06638619	      1.13562267	     -1.67375427	      0.00000000	      0.00000000
    122.03555600	     -1.36712612	     -7.97946949	     -5.42559593	     -0.02914668	      1.28722167	      0.21056754	     71.25435057	      3.32953428	     -0.14051206	     92.99475408	      1.62306465	      6.00411829	      0.00000000	      0.00000000	     36.16319297	    -13.71717405	      4.34810664	     68.33688797	      1.19270370	     -0.66381316	      0.00000000	      0.00000000
    122.04444400	     -1.02605401	     -7.30154277	     -5.17076358	     -0.02900016	      1.28726298	      0.21058934	     69.40082551	      3.03077027	      0.42353673	     90.29657542	      1.57597254	      6.94493565	      0.00000000	      0.00000000	     36.96140013	    -12.83569872	      4.70729565	     71.52349161	      1.24832042	     -0.22993757	      0.00000000	      0.00000000
    122.05333300	     -0.66356313	     -6.55227534	     -4.89503827	     -0.02879726	      1.28727086	      0.21064359	     67.40461486	      2.62298991	      0.99911136	     87.48523901	      1.52690547	      7.80792617	      0.00000000	      0.00000000	     37.78394441	    -11.88843485	      4.99189799	     74.69811900	      1.30372812	      0.21998031	      0.00000000	      0.00000000
    122.06222200	     -0.28537977	     -5.75516115	     -4.60258951	     -0.02856375	      1.28723482	      0.21072126	     65.28540471	      2.11270133	      1.55269554	     84.56721010	      1.47597626	      8.55019857	      0.00000000	      0.00000000	     38.64455004	    -10.91046870	      5.19796887	     77.85529064	      1.35883116	      0.65489308	      0.00000000	      0.00000000
    122.07111100	      0.10894659	     -4.95244962	     -4.28150990	     -0.02829130	      1.28719775	      0.21084759	     63.04483010	      1.51171892	      2.03290863	     81.54336931	      1.42320028	      9.15773071	      0.00000000	      0.00000000	     39.54146231	     -9.93865583	      5.36624916	     80.97843547	      1.41334032	      1.06764225	      0.00000000	      0.00000000
    122.08000000	      0.13125220	     -3.68728956	     -4.29699486	     -0.02775231	      1.28675205	      0.21170013	     61.22360768	      0.92296979	      3.03899918	     78.50065384	      1.37009487	      9.54193279	      0.00000000	      0.00000000	     40.76678893	     -8.85693569	      4.92558798	     83.90126975	      1.46435340	      0.90729607	      0.00000000	      0.00000000
    122.08888900	      0.66661921	     -2.99692929	     -3.61336521	     -0.02765975	      1.28674366	      0.21127826	     58.66202497	     -0.13629948	      2.99114021	     75.33420535	      1.31482992	      9.79844940	      0.00000000	      0.00000000	     41.72283541	     -7.75229496	      5.36666146	     87.02988412	      1.51895803	      1.87057943	      0.00000000	      0.00000000
    122.09777800	      1.03806257	     -2.27967940	     -3.22918314	     -0.02749080	      1.28676148	      0.21157813	     56.20258682	     -0.90300657	      3.11796691	     72.04871422	      1.25748728	      9.90341730	      0.00000000	      0.00000000	     42.84835242	     -6.93087443	      5.47660686	     89.97355442	      1.57033476	      2.07556647	      0.00000000	      0.00000000
    122.10666700	      1.26811337	     -1.43775013	     -2.86614632	     -0.02730104	      1.28665243	      0.21189921	     53.88121987	     -1.78647924	      3.25477901	     68.74588784	      1.19984209	      9.81948580	      0.00000000	      0.00000000	     44.16557420	     -6.04085721	      5.45047526	     92.81068896	      1.61985210	      2.23019899	      0.00000000	      0.00000000
    122.11555600	      1.21435038	     -0.17532896	     -2.73218127	     -0.02701789	      1.28626631	      0.21274183	     51.96183758	     -2.78027031	      3.84513283	     65.56202092	      1.14427313	      9.78789979	      0.00000000	      0.00000000	     45.75026404	     -5.03519036	      4.90143214	     95.42174512	      1.66542363	      2.19185235	      0.00000000	      0.00000000
    122.12444400	      1.37219870	      0.34850429	     -2.08676217	     -0.02704849	      1.28626343	      0.21257861	     49.59893526	     -3.76985401	      3.31477316	     62.16702520	      1.08501928	      8.85707638	      0.00000000	      0.00000000	     47.35038936	     -4.23025059	      5.23402554	     98.11189400	      1.71237559	      2.49409613	      0.00000000	      0.00000000
    122.13333300	      1.32019055	      1.11635565	     -1.70294920	     -0.02705854	      1.28599546	      0.21299558	     47.55932911	     -4.67695624	      3.16838692	     58.92953033	      1.02851433	      8.12612657	      0.00000000	      0.00000000	     49.16141029	     -3.50152781	      5.14270796	    100.60351729	      1.75586262	      2.48549833	      0.00000000	      0.00000000
    122.14222200	      1.16980484	      1.91032836	     -1.31927783	     -0.02713535	      1.28570953	      0.21336445	     45.67012890	     -5.60746955	      3.00234076	     55.78575119	      0.97364503	      7.09900051	      0.00000000	      0.00000000	     51.11457356	     -2.77641901	      4.95971005	    102.93060191	      1.79647790	      2.48809071	      0.00000000	      0.00000000
    122.15111100	      0.90531819	      2.45729582	     -0.91599352	     -0.02718724	      1.28536189	      0.21372654	     43.87640491	     -6.33025405	      2.64650506	     52.70688272	      0.91990864	      6.01581063	      0.00000000	      0.00000000	     53.25780570	     -2.26137370	      4.96186270	    105.15419420	      1.83528691	      2.40135697	      0.00000000	      0.00000000
    122.16000000	      0.66449081	      3.41907954	     -0.75451764	     -0.02728186	      1.28515866	      0.21446028	     42.25253713	     -7.21094636	      2.79120754	     49.90537615	      0.87101313	      5.18898101	      0.00000000	      0.00000000	     55.27781365	     -1.67770693	      4.40095923	    107.07523662	      1.86881543	      2.33858708	      0.00000000	      0.00000000
    122.16888900	      0.26640391	      3.64335371	     -0.27339406	     -0.02747491	      1.28462679	      0.21444885	     40.71695377	     -7.72404051	      2.12523095	     47.12310041	      0.82245326	      3.14576616	      0.00000000	      0.00000000	     57.66963074	     -1.33743760	      4.63841610	    109.04227450	      1.90314671	      2.30261503	      0.00000000	      0.00000000
    122.17777800	     -0.11652043	      4.12767328	      0.00503551	     -0.02760895	      1.28432003	      0.21470486	     39.33022889	     -8.29947544	      1.81623790	     44.61653338	      0.77870541	      1.50481058	      0.00000000	      0.00000000	     59.93197254	     -0.99610490	      4.47965240	    110.70908589	      1.93223806	      2.28782042	      0.00000000	      0.00000000
    122.18666700	     -0.52489628	      4.40403437	      0.28456819	     -0.02777691	      1.28383391	      0.21485388	     38.05258162	     -8.66849271	      1.50621322	     42.37539498	      0.73959016	     -0.09768500	      0.00000000	      0.00000000	     62.25900231	     -0.78497084	      4.50541215	    112.24756942	      1.95908966	      2.24251264	      0.00000000	      0.00000000
    122.19555600	     -0.94774915	      4.60009699	      0.51438529	     -0.02782626	      1.28345708	      0.21492647	     36.90749135	     -8.94841712	      1.15734420	     40.40848811	      0.70526116	     -1.65738232	      0.00000000	      0.00000000	     64.54414756	     -0.64971415	      4.52977984	    113.57759132	      1.98230293	      2.22901927	      0.00000000	      0.00000000
    122.20444400	     -1.27803794	      4.84576658	      0.67150425	     -0.02786528	      1.28329343	      0.21490244	     35.81936271	     -9.25461556	      0.90092360	     38.73980258	      0.67613711	     -3.27210176	      0.00000000	      0.00000000	     66.64459710	     -0.51341220	      4.44465899	    114.67762964	      2.00150222	      2.29002963	      0.00000000	      0.00000000
    122.21333300	     -1.60182114	      4.92348692	      0.85679671	     -0.02793680	      1.28308189	      0.21476374	     34.85526429	     -9.40952250	      0.62874471	     37.43200165	      0.65331167	     -4.79894603	      0.00000000	      0.00000000	     68.69906466	     -0.40305341	      4.53930407	    115.57944673	      2.01724189	      2.36857938	      0.00000000	      0.00000000
